<?xml version="1.0" standalone="no"?>
<!DOCTYPE svg PUBLIC "-//W3C//DTD SVG 20010904//EN"
 "http://www.w3.org/TR/2001/REC-SVG-20010904/DTD/svg10.dtd">
<svg version="1.0" xmlns="http://www.w3.org/2000/svg"
 width="228.000000pt" height="228.000000pt" viewBox="0 0 228.000000 228.000000"
 preserveAspectRatio="xMidYMid meet">
<metadata>
Created by potrace 1.11, written by Peter Selinger 2001-2013
</metadata>
<g transform="translate(0.000000,228.000000) scale(0.100000,-0.100000)"
fill="#000000" stroke="none">
<path d="M0 1135 l0 -825 1140 0 1140 0 0 825 0 825 -1140 0 -1140 0 0 -825z
m540 135 c0 -17 -7 -20 -40 -20 l-39 0 -3 -132 c-3 -129 -4 -133 -25 -136 -23
-3 -23 -3 -23 132 l0 136 -45 0 c-38 0 -45 3 -45 20 0 19 7 20 110 20 103 0
110 -1 110 -20z m970 0 c0 -17 -7 -20 -45 -20 l-45 0 0 -136 c0 -135 0 -135
-22 -132 -22 3 -23 7 -26 136 l-3 132 -44 0 c-38 0 -45 3 -45 20 0 19 7 20
115 20 108 0 115 -1 115 -20z m-500 -30 c0 -27 3 -30 31 -30 24 0 30 -4 27
-17 -2 -11 -14 -19 -31 -21 l-28 -3 3 -72 c3 -70 4 -72 31 -75 32 -4 36 -28 6
-37 -33 -11 -69 3 -79 31 -6 14 -10 54 -10 90 0 50 -3 64 -15 64 -8 0 -15 9
-15 20 0 11 6 20 14 20 8 0 17 14 21 30 5 21 13 30 26 30 14 0 19 -7 19 -30z
m960 0 c0 -27 3 -30 30 -30 23 0 30 -4 30 -20 0 -16 -7 -20 -30 -20 l-31 0 3
-72 c3 -71 4 -73 30 -76 14 -2 29 -10 32 -17 8 -22 -42 -31 -73 -14 -24 14
-26 21 -29 96 -2 71 -5 82 -22 86 -26 7 -26 37 0 37 16 0 20 7 20 30 0 23 4
30 20 30 16 0 20 -7 20 -30z m-1273 -57 c11 -16 18 -55 21 -109 4 -72 2 -85
-13 -90 -9 -4 -20 -1 -25 5 -6 10 -16 10 -48 0 -56 -16 -92 5 -92 56 0 29 6
39 31 54 17 11 47 22 65 26 38 7 40 12 20 40 -13 18 -17 18 -51 6 -27 -9 -40
-10 -48 -2 -15 15 3 31 45 40 48 10 77 2 95 -26z m210 17 c2 0 3 -6 3 -14 0
-21 -19 -30 -35 -16 -19 16 -59 9 -63 -12 -2 -12 12 -25 46 -42 69 -35 83 -78
36 -115 -32 -25 -64 -27 -111 -5 -30 15 -33 19 -20 31 12 12 19 13 36 3 30
-16 75 -9 79 12 2 12 -12 25 -48 43 -53 27 -72 56 -60 90 10 27 66 45 105 34
16 -5 31 -9 32 -9z m345 -12 c14 -22 29 -88 23 -98 -3 -6 -37 -10 -76 -10 -38
0 -69 -3 -69 -8 0 -4 7 -18 16 -31 15 -21 22 -23 65 -18 58 7 77 -15 27 -32
-71 -25 -130 3 -148 70 -25 92 42 171 124 148 16 -5 33 -14 38 -21z m420 0
c14 -22 29 -88 23 -98 -3 -6 -37 -10 -76 -10 -38 0 -69 -3 -69 -8 0 -4 7 -18
16 -31 15 -21 22 -23 65 -18 58 7 77 -15 27 -32 -71 -25 -130 3 -148 70 -25
92 42 171 124 148 16 -5 33 -14 38 -21z m198 7 c8 -5 8 -10 0 -20 -8 -10 -17
-10 -40 -2 -22 8 -32 8 -44 -2 -25 -21 -19 -30 28 -51 25 -10 52 -30 61 -44
14 -21 15 -29 3 -53 -19 -39 -58 -51 -111 -33 -43 15 -61 48 -22 41 11 -2 36
-4 55 -5 29 -1 35 3 35 19 0 13 -15 27 -45 43 -25 13 -48 29 -52 35 -22 34 3
80 47 89 20 4 65 -5 85 -17z"/>
<path d="M634 1093 c-51 -10 -71 -73 -24 -73 38 0 60 19 60 50 0 17 -3 29 -7
29 -5 -1 -18 -4 -29 -6z"/>
<path d="M1146 1158 c-24 -34 -20 -38 34 -38 41 0 50 3 50 18 0 44 -58 57 -84
20z"/>
<path d="M1566 1158 c-24 -34 -20 -38 34 -38 41 0 50 3 50 18 0 44 -58 57 -84
20z"/>
</g>
</svg>
